<?xml version="1.0" encoding="UTF-8"?>
<svg width="100px" height="100px" viewBox="0 0 100 100" version="1.1" xmlns="http://www.w3.org/2000/svg" xmlns:xlink="http://www.w3.org/1999/xlink">
    <!-- Generator: Sketch 63 (92445) - https://sketch.com -->
    <title>anchovydark</title>
    <desc>Created with Sketch.</desc>
    <g id="anchovydark" stroke="none" stroke-width="1" fill="none" fill-rule="evenodd">
        <path d="M83.1765816,64.367442 C87.4942794,64.3748094 90.9926273,67.8699139 91,72.183607 C91,75.3449506 89.0938868,78.1950079 86.1704749,79.4048013 C83.2470635,80.6145952 79.8820704,79.9458776 77.644588,77.7104698 C75.4071055,75.475063 74.7377666,72.1131906 75.9486836,69.1924898 C77.1596002,66.2717896 80.0123036,64.367442 83.1765816,64.367442 Z M49.3294645,20 L72.3174603,79.2569685 L55.4716534,79.2569685 L52.752211,72.2772939 L28.5183624,72.2772939 L25.8391088,79.2569685 L9,79.2569685 L31.9612032,20 L49.3294645,20 Z M40.6687774,41.0527862 L34.6404568,56.5914288 L46.6970979,56.5914288 L40.6687774,41.0527862 Z" id="Combined-Shape-Copy" fill="#FFFFFF" fill-rule="nonzero"></path>
    </g>
</svg>