<?xml version="1.0" encoding="UTF-8"?>
<svg width="100px" height="100px" viewBox="0 0 100 100" version="1.1" xmlns="http://www.w3.org/2000/svg" xmlns:xlink="http://www.w3.org/1999/xlink">
    <!-- Generator: Sketch 63 (92445) - https://sketch.com -->
    <title>ednadark</title>
    <desc>Created with Sketch.</desc>
    <g id="ednadark" stroke="none" stroke-width="1" fill="none" fill-rule="evenodd">
        <path d="M68.2837838,95.1846847 C68.730296,95.1846813 69.1419931,95.4258427 69.3603604,95.8153153 L69.3603604,95.2252252 L70.0630631,95.2252252 L70.0630631,99.7297297 L69.3603604,99.7297297 L69.3603604,98.0225225 C69.0828428,98.3754764 68.6606619,98.5840834 68.2117117,98.5900901 C67.7960297,98.5914872 67.3988705,98.4182408 67.1171171,98.1126126 C66.8439339,97.8166968 66.6854269,97.4352328 66.6662721,97.0365727 L66.6666667,96.8648649 C66.6443725,96.4058134 66.817914,95.9588621 67.1441441,95.6351351 C67.4477408,95.3374525 67.8587044,95.1750163 68.2837838,95.1846847 Z M38.8378378,95.2117117 C39.2581309,95.2022605 39.6671336,95.3482184 39.9864865,95.6216216 C40.2981285,95.9103063 40.4635158,96.3237747 40.4369369,96.7477477 L40.4684685,97.1891892 L37.8603604,97.1891892 C37.8726097,97.4249956 37.9942245,97.64157 38.1891892,97.7747748 C38.392913,97.9199544 38.6372321,97.9971907 38.8873874,97.9954955 C39.2486499,98.0186021 39.6000484,97.8720473 39.8378378,97.5990991 L40.2342342,98.0495495 C39.868305,98.4237573 39.3607837,98.6251287 38.8378378,98.6036036 C38.3974875,98.6165199 37.9699342,98.4545679 37.6486486,98.1531532 C37.3536431,97.8615678 37.1811254,97.4707639 37.1620587,97.0601564 L37.1621622,96.9054054 C37.1382359,96.4385812 37.3191889,95.9845536 37.6576577,95.6621622 C37.9779903,95.3650317 38.400993,95.2035803 38.8378378,95.2117117 Z M76.5405405,95.2117117 C76.9608336,95.2022605 77.3698363,95.3482184 77.6891892,95.6216216 C77.974602,95.8740504 78.1449815,96.2291427 78.1658968,96.6056938 L78.1711712,97.1891892 L75.5675676,97.1891892 C75.5818318,97.4244076 75.7029826,97.6401557 75.8963964,97.7747748 C76.0998405,97.9205144 76.3443464,97.9978098 76.5945946,97.9954955 C76.9558571,98.0186021 77.3072556,97.8720473 77.545045,97.5990991 L77.9459459,98.0495495 C77.5776734,98.423023 77.0691493,98.6241435 76.545045,98.6036036 C76.1059044,98.6173072 75.6794588,98.4551606 75.3603604,98.1531532 C74.6939716,97.4565268 74.6939716,96.3587885 75.3603604,95.6621622 C75.680693,95.3650317 76.1036957,95.2035803 76.5405405,95.2117117 Z M42.3963964,95.1801802 C42.7839912,95.181108 43.1623071,95.2988411 43.481982,95.518018 L43.2207207,96.036036 C42.9606422,95.8625544 42.654971,95.7700693 42.3423423,95.7702703 C42.2015268,95.7628484 42.0613558,95.7939975 41.9369369,95.8603604 C41.8366172,95.9124621 41.7752519,96.0176597 41.7792793,96.1306306 C41.7766169,96.2367296 41.8418308,96.3327389 41.9414414,96.3693694 C42.0426919,96.4146869 42.1483596,96.4494063 42.2567568,96.472973 L42.6171171,96.5720721 L42.9189189,96.6846847 C43.0280493,96.7357068 43.1334194,96.7944129 43.2342342,96.8603604 C43.4685967,97.0094495 43.6058855,97.2720143 43.5945946,97.5495495 C43.6042476,97.842276 43.4757989,98.1225276 43.2477477,98.3063063 C42.993355,98.5099578 42.6720315,98.6111747 42.3468468,98.5900901 C41.8260185,98.5817356 41.3212915,98.4082357 40.9054054,98.0945946 L41.2432432,97.5495495 C41.5570995,97.8194668 41.9514996,97.9778604 42.3648649,98 C42.4981701,98.0076429 42.6300841,97.969499 42.7387387,97.8918919 C42.8287048,97.8277039 42.8810076,97.7230983 42.8783784,97.6126126 C42.8783784,97.4657991 42.7039818,97.3308494 42.3551885,97.2077633 L42.1396396,97.1351351 C41.4504505,96.9459459 41.1081081,96.6351351 41.1081081,96.1981982 C41.1012943,95.9091119 41.2336612,95.634325 41.463964,95.4594595 C41.7344666,95.2640408 42.0630068,95.1656375 42.3963964,95.1801802 Z M63.4189189,94.1801802 L63.4189189,95.2252252 L64.2927928,95.2252252 L64.2927928,95.7837838 L63.4009009,95.7837838 L63.4009009,97.4684685 C63.3931725,97.606061 63.4382888,97.7414098 63.527027,97.8468468 C63.6169521,97.9414452 63.7434878,97.9923882 63.8738739,97.9864865 C64.0480664,97.9822774 64.212085,97.9035485 64.3243243,97.7702703 L64.6126126,98.2612613 C64.3925693,98.4706007 64.1010051,98.5881929 63.7972973,98.5900901 C63.5123947,98.5960495 63.2374144,98.4854066 63.036036,98.2837838 C62.8499757,98.0939901 62.7393731,97.8448173 62.7217203,97.582494 L62.7207207,95.7837838 L62.3018018,95.7837838 L62.3018018,95.2252252 L62.7207207,95.2252252 L62.7207207,94.1801802 L63.4189189,94.1801802 Z M35.6441441,94.1801802 L35.6441441,95.2252252 L36.518018,95.2252252 L36.518018,95.7837838 L35.6261261,95.7837838 L35.6261261,97.4684685 C35.6183978,97.606061 35.663514,97.7414098 35.7522523,97.8468468 C35.8421773,97.9414452 35.968713,97.9923882 36.0990991,97.9864865 C36.2732916,97.9822774 36.4373102,97.9035485 36.5495495,97.7702703 L36.8333333,98.2612613 C36.6154339,98.4711035 36.3250328,98.5888773 36.0225225,98.5900901 C35.7374265,98.5971132 35.4620425,98.4863078 35.2612613,98.2837838 C35.0752009,98.0939901 34.9645983,97.8448173 34.9469455,97.582494 L34.9459459,95.7837838 L34.527027,95.7837838 L34.527027,95.2252252 L34.9459459,95.2252252 L34.9459459,94.1801802 L35.6441441,94.1801802 Z M51.4324324,94.1801802 L51.4324324,95.2252252 L52.3063063,95.2252252 L52.3063063,95.7837838 L51.4324324,95.7837838 L51.4324324,97.4684685 C51.4268992,97.6057589 51.4717577,97.7403345 51.5585586,97.8468468 C51.649528,97.9426703 51.7779811,97.9937222 51.9099099,97.9864865 C52.0767235,97.9782222 52.2322218,97.8996546 52.3378378,97.7702703 L52.6261261,98.2612613 C52.406588,98.4713842 52.1146984,98.5891076 51.8108108,98.5900901 C51.5259082,98.5960495 51.250928,98.4854066 51.0495495,98.2837838 C50.8343519,98.0611658 50.720308,97.759764 50.7342342,97.4504505 L50.7342342,95.7837838 L50.3153153,95.7837838 L50.3153153,95.2252252 L50.7342342,95.2252252 L50.7342342,94.1801802 L51.4324324,94.1801802 Z M28.472973,95.1396396 C28.8161736,95.1247079 29.1538513,95.229834 29.4279279,95.4369369 C29.6925577,95.6714426 29.8311155,96.0170023 29.8018018,96.3693694 L29.8063063,98.5405405 L29.1711712,98.5405405 L29.1711712,98.0900901 C28.8978546,98.4166403 28.4885639,98.5979927 28.0630631,98.5810811 C27.7512619,98.5935281 27.4460472,98.4891125 27.2072072,98.2882883 C26.9789434,98.0952819 26.8525988,97.8076817 26.8648649,97.509009 C26.8465806,97.2166562 26.9856699,96.9367603 27.2297297,96.7747748 C27.4750417,96.6276816 27.7522707,96.5443525 28.0362274,96.5310556 L29.1081081,96.5315315 L29.1081081,96.3963964 C29.1081081,95.9459459 28.8648649,95.7342342 28.3693694,95.7342342 C28.0228648,95.7478614 27.6885086,95.8655924 27.4099099,96.0720721 L27.0990991,95.6216216 C27.4870092,95.305968 27.9728785,95.1355155 28.472973,95.1396396 Z M56.2342342,95.1711712 C56.5774349,95.1562395 56.9151125,95.2613655 57.1891892,95.4684685 C57.4268917,95.6688924 57.5691909,95.9574999 57.5861021,96.2640996 L57.5855856,98.5405405 L56.9459459,98.5405405 L56.9459459,98.0900901 C56.6747973,98.4195065 56.2640054,98.601524 55.8378378,98.5810811 C55.5260367,98.5935281 55.2208219,98.4891125 54.981982,98.2882883 C54.7553707,98.0940522 54.6293971,97.8072965 54.6396396,97.509009 C54.6213554,97.2166562 54.7604447,96.9367603 55.0045045,96.7747748 C55.2498165,96.6276816 55.5270454,96.5443525 55.8110021,96.5310556 L56.8828829,96.5315315 L56.8828829,96.3963964 C56.8828829,95.9459459 56.6396396,95.7342342 56.1486486,95.7342342 C55.8005922,95.7469625 55.4645383,95.8647384 55.1846847,96.0720721 L54.8738739,95.6216216 C55.2627689,95.3208794 55.7427056,95.1619599 56.2342342,95.1711712 Z M74.0495495,95.2162162 L74.0495495,98.5315315 L73.3513514,98.5315315 L73.3513514,97.9279279 C73.2468001,98.1258342 73.091292,98.2922278 72.9009009,98.4099099 C72.4013305,98.6844293 71.7832228,98.6159509 71.3558559,98.2387387 C71.1076955,97.9708737 70.9820556,97.6119025 71.009009,97.2477477 L71.009009,95.2252252 L71.7072072,95.2252252 L71.7072072,97.027027 C71.7072072,97.6396396 71.9594595,97.9279279 72.4684685,97.9279279 C72.702281,97.9317651 72.9284245,97.8445383 73.0990991,97.6846847 C73.2712572,97.5065903 73.3624923,97.2654689 73.3513514,97.018018 L73.3513514,95.2162162 L74.0495495,95.2162162 Z M32.5495495,95.1711712 C32.884662,95.1586255 33.2102708,95.2839849 33.4504505,95.518018 C33.6986108,95.785883 33.8242507,96.1448542 33.7972973,96.509009 L33.7972973,98.5405405 L33.1351351,98.5405405 L33.1351351,96.7387387 C33.1351351,96.1261261 32.8828829,95.8378378 32.3738739,95.8378378 C32.1400614,95.8340007 31.9139179,95.9212274 31.7432432,96.0810811 C31.5595177,96.253795 31.4565859,96.4956031 31.4594595,96.7477477 L31.4594595,98.5495495 L30.7792793,98.5495495 L30.7792793,95.2252252 L31.4594595,95.2252252 L31.4594595,95.8288288 C31.5640107,95.6309225 31.7195188,95.4645289 31.9099099,95.3468468 C32.1038851,95.2328699 32.3245697,95.1722594 32.5495495,95.1711712 Z M60.3423423,95.1711712 C60.677103,95.1607178 61.0019215,95.2857729 61.2432432,95.518018 C61.452781,95.7495134 61.5746012,96.0451163 61.5908474,96.3538084 L61.5900901,98.5405405 L60.9099099,98.5405405 L60.9099099,96.7387387 C60.9099099,96.1261261 60.6576577,95.8378378 60.1486486,95.8378378 C59.9148361,95.8340007 59.6886927,95.9212274 59.518018,96.0810811 C59.3409178,96.2569024 59.2446819,96.4983077 59.2522523,96.7477477 L59.2522523,98.5495495 L58.5540541,98.5495495 L58.5540541,95.2252252 L59.2522523,95.2252252 L59.2522523,95.8288288 C59.3568035,95.6309225 59.5123116,95.4645289 59.7027027,95.3468468 C59.8966779,95.2328699 60.1173625,95.1722594 60.3423423,95.1711712 Z M65.8468468,95.2252252 L65.8468468,98.5405405 L65.1486486,98.5405405 L65.1486486,95.2252252 L65.8468468,95.2252252 Z M22.7342342,94.1801802 L25.2702703,97.4369369 L25.2702703,94.1801802 L26.0045045,94.1801802 L26.0045045,98.5405405 L25.2072072,98.5405405 L22.7342342,95.3603604 L22.7342342,98.5405405 L22,98.5405405 L22,94.1801802 L22.7342342,94.1801802 Z M53.8828829,93.9144144 L53.8828829,98.5405405 L53.1801802,98.5405405 L53.1801802,93.9144144 L53.8828829,93.9144144 Z M48.2972973,94.1801802 L50.2162162,98.5405405 L49.4324324,98.5405405 L48.981982,97.5495495 L46.8108108,97.5495495 L46.3603604,98.5405405 L45.5900901,98.5405405 L47.509009,94.1801802 L48.2972973,94.1801802 Z M56.8828829,97.018018 L56.0945946,97.018018 C55.5900901,97.018018 55.3378378,97.1681682 55.3378378,97.4684685 C55.3321044,97.6161742 55.4038137,97.756178 55.527027,97.8378378 C55.6838053,97.9336458 55.8661297,97.9792269 56.0495495,97.9684685 C56.2589437,97.9721199 56.4635244,97.9055122 56.6306306,97.7792793 C56.7875891,97.6687583 56.881533,97.4892582 56.8828829,97.2972973 L56.8828829,97.018018 Z M29.1081081,97.018018 L28.3063063,97.018018 C27.8018018,97.018018 27.5495495,97.1681682 27.5495495,97.4684685 C27.5419806,97.6165735 27.6141288,97.7574342 27.7387387,97.8378378 C27.895517,97.9336458 28.0778414,97.9792269 28.2612613,97.9684685 C28.4706554,97.9721199 28.6752361,97.9055122 28.8423423,97.7792793 C29.0044337,97.6717597 29.1036876,97.4917569 29.1081081,97.2972973 L29.1081081,97.018018 Z M68.3603604,95.7837838 C68.0876597,95.7823286 67.8272236,95.8969861 67.6441441,96.0990991 C67.4440097,96.3135916 67.3370968,96.5986927 67.3468468,96.8918919 C67.3352377,97.1822296 67.4445129,97.4643879 67.6486486,97.6711712 C67.8376809,97.8625716 68.0958561,97.9697386 68.3648649,97.9684685 C68.6314776,97.9729728 68.8872621,97.8631166 69.0675676,97.6666667 C69.2611398,97.4544417 69.3631236,97.1743909 69.3513514,96.8873874 C69.3607341,96.5980515 69.2592182,96.316063 69.0675676,96.0990991 C68.8886795,95.8964549 68.6306565,95.7814129 68.3603604,95.7837838 Z M47.9009009,95.0675676 L47.1126126,96.8693694 L48.6981982,96.8693694 L47.9009009,95.0675676 Z M76.5630631,95.7702703 C76.3136252,95.7692144 76.0710098,95.8516719 75.8738739,96.0045045 C75.674572,96.1538162 75.5603222,96.3907165 75.5675676,96.6396396 L77.4684685,96.6396396 C77.4838188,96.3963749 77.3876774,96.1593366 77.2072072,95.9954955 C77.0273464,95.8440228 76.7981226,95.7638746 76.5630631,95.7702703 Z M38.8648649,95.7702703 C38.615427,95.7692144 38.3728116,95.8516719 38.1756757,96.0045045 C37.9711211,96.1502929 37.8528317,96.3885616 37.8603604,96.6396396 L39.7702703,96.6396396 C39.7856206,96.3963749 39.6894792,96.1593366 39.509009,95.9954955 C39.3287302,95.8447574 39.0997936,95.7647097 38.8648649,95.7702703 Z M65.8153153,93.9369369 C65.9840782,94.11153 65.9840782,94.38847 65.8153153,94.5630631 C65.6413071,94.7289433 65.3677019,94.7289433 65.1936937,94.5630631 C65.0249308,94.38847 65.0249308,94.11153 65.1936937,93.9369369 C65.3677019,93.7710567 65.6413071,93.7710567 65.8153153,93.9369369 Z M46.545045,77.7252252 C47.2491225,77.7292407 47.9477063,77.8494763 48.6126126,78.0810811 C49.2711054,78.2994761 49.8824216,78.6402848 50.4144144,79.0855856 L49.2477477,80.7702703 C48.4580011,80.1171763 47.4705444,79.7504521 46.4459459,79.7297297 C46.1224057,79.7101953 45.802192,79.8041884 45.5405405,79.9954955 C45.3225622,80.1721433 45.1993274,80.4402623 45.2072072,80.7207207 C45.2037743,81.013794 45.3587746,81.2859058 45.6126126,81.4324324 C46.2060117,81.7260122 46.8363286,81.9381381 47.4864865,82.0630631 C48.3245645,82.2342309 49.1083857,82.6068165 49.7702703,83.1486486 C50.3384219,83.6972487 50.6351833,84.4688283 50.5810811,85.2567568 C50.6064516,86.1291083 50.2212544,86.9628685 49.5405405,87.509009 C48.8247854,88.0637487 47.9491054,88.3676719 47.0480671,88.3782838 L46.8018018,88.3738739 C45.1522698,88.3688667 43.5692965,87.7227552 42.3873874,86.5720721 L43.7612613,84.8873874 C44.8738739,85.8603604 45.9009009,86.3513514 46.8468468,86.3513514 C47.1997559,86.3706932 47.5493215,86.2742068 47.8423423,86.0765766 C48.0837529,85.908071 48.2276004,85.632241 48.2276004,85.3378378 C48.2276004,85.0434347 48.0837529,84.7676047 47.8423423,84.5990991 C47.3675426,84.3345918 46.8535713,84.1475549 46.3198198,84.045045 C45.3723185,83.8703825 44.4744711,83.4906423 43.6891892,82.9324324 C43.0915046,82.3813189 42.782217,81.5848201 42.8513514,80.7747748 C42.817016,79.8965662 43.2118456,79.0565033 43.9099099,78.5225225 C44.6752614,77.9712676 45.6024662,77.6907288 46.545045,77.7252252 Z M62.2207207,77.6981982 C63.6456234,77.6768675 65.0248772,78.2005328 66.0765766,79.1621622 L64.8828829,80.8873874 C64.5057598,80.5404086 64.0734004,80.2587661 63.6036036,80.0540541 C63.2015786,79.8981059 62.7735342,79.8201407 62.3423423,79.8243243 C61.5122969,79.8061412 60.7117272,80.1322388 60.1306306,80.7252252 C58.9441773,82.0597238 58.9287713,84.0663606 60.0945946,85.4189189 C60.6273552,85.987272 61.3741896,86.3059431 62.1531532,86.2972973 C62.8448973,86.3250205 63.5317012,86.169635 64.1441441,85.8468468 L64.1441441,83 L66.463964,83 L66.463964,86.6621622 C65.4369369,87.8033033 64.0195195,88.3738739 62.2117117,88.3738739 C60.7877632,88.4099965 59.4103997,87.8652306 58.3963964,86.8648649 C57.4337027,85.9351953 56.8804748,84.6652857 56.8503648,83.3344618 L56.8513514,83.0675676 C56.8154493,81.6260221 57.385716,80.2354863 58.4234234,79.2342342 C59.4288464,78.2289602 60.7991379,77.6746667 62.2207207,77.6981982 Z M40.6216216,77.9279279 L40.6216216,79.9774775 L35.4864865,79.9774775 L35.4864865,82.1036036 L40.1036036,82.1036036 L40.1036036,84.0675676 L35.4864865,84.0675676 L35.4864865,86.2072072 L40.7837838,86.2072072 L40.7837838,88.2477477 L33.1801802,88.2477477 L33.1801802,77.9279279 L40.6216216,77.9279279 Z M55.1936937,77.9279279 L55.1936937,88.2477477 L52.8918919,88.2477477 L52.8918919,77.9279279 L55.1936937,77.9279279 Z M70.7837838,77.9279279 L75.8468468,84.5675676 L75.8468468,77.9279279 L78.1531532,77.9279279 L78.1531532,88.2477477 L75.8468468,88.2477477 L70.9324324,81.7792793 L70.9324324,88.2477477 L68.6306306,88.2477477 L68.6306306,77.9279279 L70.7837838,77.9279279 Z M25.6486486,77.9279279 C27.4894895,77.9279279 28.9024024,78.3783784 29.8873874,79.2792793 C30.9027486,80.2570976 31.4421062,81.6285131 31.3648649,83.036036 C31.4373992,84.4504885 30.914696,85.8307517 29.9234234,86.8423423 C28.9654655,87.7792793 27.5015015,88.2477477 25.5315315,88.2477477 L22,88.2477477 L22,77.9279279 L25.6486486,77.9279279 Z M25.5900901,79.9369369 L24.3063063,79.9369369 L24.3063063,86.2162162 L25.7702703,86.2162162 C26.6521533,86.2737993 27.5221384,85.9881085 28.1981982,85.4189189 L28.1981982,85.4099099 C28.7957173,84.7929463 29.10349,83.9514828 29.045045,83.0945946 C29.0999702,82.230137 28.7932361,81.3817232 28.1981982,80.7522523 C27.6306306,80.2087087 26.7612613,79.9369369 25.5900901,79.9369369 Z M38.5810811,66.490991 C39.670279,66.4707613 40.7101674,66.9443411 41.4099099,67.7792793 L40.4684685,68.8558559 C40.0431208,68.2887256 39.3755795,67.954955 38.6666667,67.954955 C38.1199395,67.9447938 37.5904851,68.1465675 37.1891892,68.518018 C36.8131939,68.8719983 36.5930462,69.3577708 36.5717478,69.8692434 L36.5720721,70.0405405 C36.5457547,70.6120999 36.7559198,71.169282 37.1531532,71.5810811 C37.5174276,71.9547385 38.0187298,72.1630719 38.5405405,72.1576577 C39.2652605,72.1720478 39.9526125,71.8367541 40.3873874,71.2567568 L41.3693694,72.2792793 C40.7131848,73.0561648 39.7666765,73.5293902 38.7514545,73.5881572 C37.7362325,73.6469242 36.7414429,73.2860727 36,72.5900901 C35.3176989,71.929537 34.944924,71.0123146 34.972973,70.0630631 C34.9499489,69.1045561 35.3288748,68.1801074 36.018018,67.5135135 C36.6974649,66.8378395 37.6231249,66.4685516 38.5810811,66.490991 Z M48.2072072,67.509009 C49.5895489,68.911883 49.5895489,71.1646936 48.2072072,72.5675676 C46.7683168,73.9255674 44.5199715,73.9255674 43.0810811,72.5675676 C41.6987394,71.1646936 41.6987394,68.911883 43.0810811,67.509009 C44.5199715,66.1510092 46.7683168,66.1510092 48.2072072,67.509009 Z M70.8018018,67.5675676 C71.4770616,68.2184793 71.8355297,69.1310932 71.7837838,70.0675676 C71.832668,71.0098881 71.4847056,71.9296198 70.8243243,72.6036036 C70.1891892,73.2252252 69.2117117,73.536036 67.9054054,73.536036 L65.5540541,73.536036 L65.5540541,66.6666667 L67.981982,66.6666667 C69.001878,66.6007954 70.0090216,66.9225665 70.8018018,67.5675676 Z M23.5315315,66.6666667 L23.5315315,72.1666667 L26.4594595,72.1666667 L26.4594595,73.518018 L22,73.5135135 L22,66.6666667 L23.5315315,66.6666667 Z M52.0810811,66.6666667 L52.0810811,72.1666667 L55.009009,72.1666667 L55.009009,73.518018 L50.5495495,73.5135135 L50.5495495,66.6666667 L52.0810811,66.6666667 Z M33.9099099,66.6666667 L33.9099099,68.018018 L30.490991,68.018018 L30.490991,69.4324324 L33.5675676,69.4324324 L33.5675676,70.7207207 L30.490991,70.7207207 L30.490991,72.1441441 L34.018018,72.1441441 L34.018018,73.4954955 L28.9594595,73.4954955 L28.9594595,66.6666667 L33.9099099,66.6666667 Z M61.0810811,66.6666667 L61.0810811,68.018018 L57.6621622,68.018018 L57.6621622,69.4324324 L60.7387387,69.4324324 L60.7387387,70.7207207 L57.6621622,70.7207207 L57.6621622,72.1441441 L61.1891892,72.1441441 L61.1891892,73.4954955 L56.1261261,73.4954955 L56.1261261,66.6666667 L61.0810811,66.6666667 Z M78.0630631,66.6666667 L78.0630631,68.018018 L74.6441441,68.018018 L74.6441441,69.4324324 L77.7207207,69.4324324 L77.7207207,70.7207207 L74.6441441,70.7207207 L74.6441441,72.1441441 L78.1711712,72.1441441 L78.1711712,73.4954955 L73.1126126,73.4954955 L73.1126126,66.6666667 L78.0630631,66.6666667 Z M45.6486486,67.8197885 C45.0948911,67.8197885 44.567361,68.055714 44.1981982,68.4684685 C43.3973124,69.3669537 43.3973124,70.7231364 44.1981982,71.6216216 C44.5688493,72.0317797 45.0958269,72.2658354 45.6486486,72.2658354 C46.2014704,72.2658354 46.728448,72.0317797 47.0990991,71.6216216 C47.4883712,71.1888962 47.6950038,70.6222711 47.6756757,70.0405405 C47.6926613,69.461891 47.4861848,68.8989199 47.0990991,68.4684685 C46.7299363,68.055714 46.2024062,67.8197885 45.6486486,67.8197885 Z M67.9414414,68.0045045 L67.0855856,68.0045045 L67.0855856,72.1801802 L68.0585586,72.1801802 C68.649609,72.210561 69.2293728,72.0103083 69.6756757,71.6216216 L69.6756757,71.6531532 C70.0747019,71.2417453 70.2794971,70.6797873 70.2387387,70.1081081 C70.2776806,69.5326489 70.0734171,68.9672475 69.6756757,68.5495495 C69.1897631,68.1505657 68.5682357,67.9552285 67.9414414,68.0045045 Z M28.1261261,66.6846847 L26.981982,68.4189189 L26.0720721,68.4189189 L26.8243243,66.6846847 L28.1261261,66.6846847 Z M32.5585586,62.6936937 L32.5585586,64.3108108 L30.481982,66.018018 L30.481982,64.4009009 L32.5585586,62.6936937 Z M78.1531532,8.95283847e-12 L78.1576577,29.027027 L40.8648649,59.7162162 L40.8648649,30.6396396 L78.1531532,8.95283847e-12 Z" id="carre2" fill="#FFFFFF" fill-rule="nonzero"></path>
        <polygon id="carre1" fill="#E41145" fill-rule="nonzero" points="59.2972973 29.027027 22.0045045 59.7162162 22.0045045 30.6396396 59.2882883 0"></polygon>
    </g>
</svg>