<?xml version="1.0" encoding="UTF-8"?>
<svg width="100px" height="100px" viewBox="0 0 100 100" version="1.1" xmlns="http://www.w3.org/2000/svg" xmlns:xlink="http://www.w3.org/1999/xlink">
    <!-- Generator: Sketch 63 (92445) - https://sketch.com -->
    <title>rm</title>
    <desc>Created with Sketch.</desc>
    <g id="rm" stroke="none" stroke-width="1" fill="none" fill-rule="evenodd">
        <g id="Group-7" transform="translate(5.000000, 24.000000)">
            <path d="M64.973494,6.57344746 L50.4894578,26.4590063 L36.0243976,6.59240673 L36.0243976,6.57344746 L36.0243976,6.57344746 C33.3135542,2.78159479 28.6319277,0.195009566 22.1286145,0.154382573 C14.7740964,0.154382573 7.42228916,0.0920878508 0.0731927711,0.0920878508 L0.0731927711,39.0560826 L8.81295181,39.0560826 L8.81295181,30.9902702 L17.2165663,30.9902702 L29.3503012,47.8721401 L39.7463855,47.8721401 L39.7463855,47.2762775 L27.0813253,30.0639748 C30.3993976,29.3895667 32.8798193,28.0597098 34.6716867,26.323583 C35.7416747,25.2888719 36.6183566,24.0717653 37.2605422,22.7294483 L49.4213855,39.3458885 L51.1373494,39.3458885 L66.2150602,19.2599031 L66.2150602,52.8150909 L74.9439759,52.8150909 L74.9439759,6.57344746 L64.973494,6.57344746 Z M25.9563253,22.3692223 C24.7430185,22.8863436 23.4339248,23.1411022 22.1150602,23.116759 L8.79939759,23.116759 L8.79939759,8.2933235 L22.1150602,8.2933235 C23.1932035,8.28100693 24.2659153,8.44758452 25.2894578,8.78626435 C25.5225904,8.86751834 25.7421687,8.95689772 25.9563253,9.05711097 C28.7674699,10.3300901 30.0578313,13.019597 30.0578313,15.7063955 C30.0578313,18.393194 28.7918675,21.1016602 25.9563253,22.3692223 Z" id="Shape" fill="#000000" fill-rule="nonzero"></path>
            <path d="M79.338253,47.6690051 C79.338253,54.5430923 89.7695783,54.5430923 89.7695783,47.6690051 C89.7695783,40.7949179 79.338253,40.7949179 79.338253,47.6690051 Z" id="Path" fill="#FF6C0E"></path>
        </g>
    </g>
</svg>