<?xml version="1.0" encoding="UTF-8"?>
<svg width="24px" height="24px" viewBox="0 0 24 24" version="1.1" xmlns="http://www.w3.org/2000/svg" xmlns:xlink="http://www.w3.org/1999/xlink">
    <!-- Generator: Sketch 61.2 (89653) - https://sketch.com -->
    <title>icones / icn-back-24x24</title>
    <desc>Created with Sketch.</desc>
    <g id="icones-/-icn-back-24x24" stroke="none" stroke-width="1" fill="none" fill-rule="evenodd">
        <path d="M12,22 C17.4832536,22 22,17.4854137 22,12.0047824 C22,6.52415112 17.4736842,2 12,2 C6.51674641,2 2,6.52415112 2,12.0047824 C2,17.4854137 6.51674641,22 12,22 Z M12,19.7522716 C7.70334928,19.7522716 4.25837321,16.2993783 4.25837321,12.0047824 C4.25837321,7.71018651 7.6937799,4.24772836 12,4.24772836 C16.2966507,4.24772836 19.7511962,7.71018651 19.7607656,12.0047824 C19.7607656,16.2993783 16.2966507,19.7522716 12,19.7522716 Z M11.3014354,16.2037303 C11.7799043,16.2037303 12.1339713,15.8402678 12.1339713,15.3428981 C12.1339713,15.0846485 12.0287081,14.8550933 11.8564593,14.7020564 L10.7272727,13.6499283 L9.71291866,12.8656145 L11.6267943,12.9612626 L16.0574163,12.9612626 C16.5933014,12.9612626 16.9760766,12.5499761 16.9760766,11.9952176 C16.9760766,11.4500239 16.5933014,11.0291726 16.0574163,11.0291726 L11.6267943,11.0291726 L9.71291866,11.1248207 L10.7368421,10.3405069 L11.8564593,9.28837877 C12.0191388,9.13534194 12.1339713,8.9057867 12.1339713,8.64753706 C12.1339713,8.15016738 11.7799043,7.79626973 11.3014354,7.79626973 C11.0430622,7.79626973 10.8421053,7.87278814 10.6507177,8.05451937 L7.39712919,11.2204687 C7.15789474,11.4500239 7.0430622,11.6987088 7.0430622,11.9952176 C7.0430622,12.310856 7.16746411,12.5595409 7.39712919,12.7795313 L10.6507177,15.9454806 C10.8421053,16.1272119 11.0430622,16.2037303 11.3014354,16.2037303 Z" id="icn-back" fill="#E4223A" fill-rule="nonzero"></path>
    </g>
</svg>