<?xml version="1.0" encoding="UTF-8"?>
<svg width="24px" height="24px" viewBox="0 0 24 24" version="1.1" xmlns="http://www.w3.org/2000/svg" xmlns:xlink="http://www.w3.org/1999/xlink">
    <!-- Generator: Sketch 61.2 (89653) - https://sketch.com -->
    <title>icones / icn-resume-24x24</title>
    <desc>Created with Sketch.</desc>
    <g id="icones-/-icn-resume-24x24" stroke="none" stroke-width="1" fill="none" fill-rule="evenodd">
        <path d="M16.8934708,22 C18.9186712,22 20,20.9102564 20,18.8772894 L20,10.5714286 C20,9.21611722 19.8075601,8.56593407 18.9553265,7.6959707 L14.3642612,3.04395604 C13.5303551,2.2014652 12.8339061,2 11.5876289,2 L7.10652921,2 C5.08132875,2 4,3.0989011 4,5.13186813 L4,18.8772894 C4,20.9194139 5.08132875,22 7.10652921,22 L16.8934708,22 Z M16.6735395,19.9029304 L7.32646048,19.9029304 C6.49255441,19.9029304 6.09851088,19.481685 6.09851088,18.6849817 L6.09851088,5.31501832 C6.09851088,4.53663004 6.49255441,4.0970696 7.32646048,4.0970696 L11.0744559,4.0970696 L11.0744559,8.83150183 C11.0744559,10.2875458 11.7800687,10.9835165 13.2279496,10.9835165 L17.9014891,10.9835165 L17.9014891,18.6849817 C17.9014891,19.481685 17.4982818,19.9029304 16.6735395,19.9029304 Z M17.6907216,9.21611722 L13.4020619,9.21611722 C13.0171821,9.21611722 12.8430699,9.04212454 12.8430699,8.65750916 L12.8430699,4.31684982 L17.6907216,9.21611722 Z M12,18.8406593 C12.2657503,18.8406593 12.467354,18.7307692 12.696449,18.529304 L15.1248568,16.3040293 C15.3172967,16.1391941 15.4089347,15.956044 15.4089347,15.7087912 C15.4089347,15.2692308 15.069874,14.9487179 14.6208477,14.9487179 C14.4009164,14.9487179 14.1718213,15.0586081 14.0343643,15.2234432 L13.4570447,15.8186813 L12.8064147,16.5054945 L12.8888889,15.1410256 L12.8888889,12.7967033 C12.8888889,12.3113553 12.4856816,11.96337 12,11.96337 C11.5143184,11.96337 11.1111111,12.3113553 11.1111111,12.7967033 L11.1111111,15.1410256 L11.1935853,16.5054945 L10.5521191,15.8186813 L9.96563574,15.2234432 C9.81901489,15.0586081 9.59908362,14.9487179 9.37915235,14.9487179 C8.930126,14.9487179 8.59106529,15.2692308 8.59106529,15.7087912 C8.59106529,15.956044 8.68270332,16.1391941 8.87514318,16.3040293 L11.303551,18.529304 C11.532646,18.7307692 11.7342497,18.8406593 12,18.8406593 Z" id="icone-resume" fill="#E4223A" fill-rule="nonzero"></path>
    </g>
</svg>