<?xml version="1.0" encoding="UTF-8"?>
<svg width="32px" height="32px" viewBox="0 0 32 32" version="1.1" xmlns="http://www.w3.org/2000/svg" xmlns:xlink="http://www.w3.org/1999/xlink">
    <!-- Generator: Sketch 50.2 (55047) - http://www.bohemiancoding.com/sketch -->
    <title>behance</title>
    <desc>Created with Sketch.</desc>
    <defs></defs>
    <g id="Page-1" stroke="none" stroke-width="1" fill="none" fill-rule="evenodd">
        <g id="behance">
            <rect id="Rectangle-7-Copy" fill="#FFFFFF" x="0" y="0" width="32" height="32"></rect>
            <g transform="translate(2.000000, 7.000000)" fill="#000000" fill-rule="nonzero" id="Shape">
                <path d="M11.2777778,8.06519337 C12.8236111,7.30939227 13.6305556,6.16574586 13.6305556,4.38563536 C13.6305556,0.875138122 11.0736111,0.0198895028 8.12291667,0.0198895028 L0,0.0198895028 L0,17.641989 L8.35138889,17.641989 C11.4819444,17.641989 14.4229167,16.1055249 14.4229167,12.5254144 C14.4229167,10.3127072 13.3972222,8.67679558 11.2777778,8.06519337 Z M3.78680556,3.0281768 L7.34027778,3.0281768 C8.70625,3.0281768 9.93611111,3.42099448 9.93611111,5.04198895 C9.93611111,6.53867403 8.97847222,7.14033149 7.62708333,7.14033149 L3.78680556,7.14033149 L3.78680556,3.0281768 Z M7.83611111,14.6486188 L3.78680556,14.6486188 L3.78680556,9.79558011 L7.91388889,9.79558011 C9.58125,9.79558011 10.6361111,10.5066298 10.6361111,12.3116022 C10.6361111,14.0917127 9.37708333,14.6486188 7.83611111,14.6486188 Z M25.2631944,2.6801105 L18.2777778,2.6801105 L18.2777778,0.944751381 L25.2631944,0.944751381 L25.2631944,2.6801105 Z M28,11.4464088 C28,7.67237569 25.8416667,4.52486188 21.9284722,4.52486188 C18.1270833,4.52486188 15.5458333,7.44861878 15.5458333,11.2773481 C15.5458333,15.2502762 17.9909722,17.9751381 21.9284722,17.9751381 C24.9083333,17.9751381 26.8381944,16.6027624 27.7666667,13.6839779 L24.7430556,13.6839779 C24.4173611,14.7729282 23.0756944,15.3497238 22.0354167,15.3497238 C20.0277778,15.3497238 18.9729167,14.1464088 18.9729167,12.1027624 L27.9708333,12.1027624 C27.9854167,11.8939227 28,11.6701657 28,11.4464088 Z M18.9777778,9.89502762 C19.0895833,8.21933702 20.1784722,7.17016575 21.8215278,7.17016575 C23.5423611,7.17016575 24.4076389,8.20441989 24.5534722,9.89502762 L18.9777778,9.89502762 Z"></path>
            </g>
        </g>
    </g>
</svg>