<?xml version="1.0" encoding="UTF-8"?>
<svg width="32px" height="32px" viewBox="0 0 32 32" version="1.1" xmlns="http://www.w3.org/2000/svg" xmlns:xlink="http://www.w3.org/1999/xlink">
    <!-- Generator: Sketch 50.2 (55047) - http://www.bohemiancoding.com/sketch -->
    <title>dribbble</title>
    <desc>Created with Sketch.</desc>
    <defs></defs>
    <g id="Page-1" stroke="none" stroke-width="1" fill="none" fill-rule="evenodd">
        <g id="dribbble">
            <rect id="Rectangle-7-Copy-2" fill="#FFFFFF" x="0" y="0" width="32" height="32"></rect>
            <g transform="translate(4.000000, 4.000000)" fill="#000000" fill-rule="nonzero" id="Shape">
                <path d="M12,0 C5.38316129,0 0,5.38316129 0,12 C0,18.6168387 5.38316129,24 12,24 C18.6168387,24 24,18.6168387 24,12 C24,5.38316129 18.6168387,0 12,0 Z M19.9340323,5.53383871 C21.3615968,7.278 22.2260806,9.4995 22.248629,11.9187581 C21.9106935,11.8472903 18.5219516,11.1599516 15.1114355,11.5888548 C14.8331129,10.9094516 14.5704194,10.3117742 14.2106129,9.57527419 C18.0003387,8.028 19.7179355,5.82614516 19.9340323,5.53383871 Z M18.7945645,4.34854839 C18.6102097,4.61114516 17.0672903,6.68496774 13.4225806,8.05108065 C11.7429677,4.96514516 9.88137097,2.43004839 9.59806452,2.05069355 C12.8485161,1.26716129 16.2738387,2.11214516 18.7945645,4.34854839 Z M7.64230645,2.73967742 C7.91254839,3.11027419 9.74414516,5.64851613 11.4424839,8.66753226 C6.64795161,9.94074194 2.42506452,9.92240323 1.96664516,9.91635484 C2.63129032,6.73572581 4.77474194,4.09224194 7.64230645,2.73967742 Z M1.75016129,12.015629 C1.75016129,11.9108226 1.75224194,11.8065 1.7553871,11.7024194 C2.20383871,11.7116129 7.17087097,11.775629 12.2895484,10.2437419 C12.5829677,10.818 12.8632742,11.4009194 13.1205484,11.9832097 C9.41414516,13.0271613 6.04664516,16.0248387 4.38517742,18.8689839 C2.74809677,17.0518548 1.75016129,14.6482258 1.75016129,12.015629 Z M5.70856452,20.1017419 C6.77922581,17.9130484 9.68491935,15.0877742 13.8172258,13.6780645 C15.2562581,17.4175645 15.851371,20.5515968 16.0037903,21.450871 C12.7080484,22.8547258 8.745,22.4695645 5.70856452,20.1017419 Z M17.7269516,20.5125 C17.6219032,19.8889839 17.0763387,16.8884516 15.7357258,13.2044516 C18.9476613,12.6902903 21.7695968,13.5319355 22.1202581,13.6425968 C21.6633871,16.4945806 20.0264032,18.957629 17.7269516,20.5125 Z"></path>
            </g>
        </g>
    </g>
</svg>