<?xml version="1.0" encoding="UTF-8"?>
<svg width="72px" height="181px" viewBox="0 0 72 181" version="1.1" xmlns="http://www.w3.org/2000/svg" xmlns:xlink="http://www.w3.org/1999/xlink">
    <!-- Generator: Sketch 61.2 (89653) - https://sketch.com -->
    <title>img-iso-iphone</title>
    <desc>Created with Sketch.</desc>
    <g id="Dark-V2" stroke="none" stroke-width="1" fill="none" fill-rule="evenodd">
        <g id="Desktop-HD-Copy-6" transform="translate(-685.000000, -271.000000)" fill-rule="nonzero">
            <g id="Group-11" transform="translate(579.000000, 164.000000)">
                <g id="img-iso-iphone" transform="translate(106.000000, 107.000000)">
                    <path d="M56.3838592,1.35585027 C58.5237144,0.00534407201 62.137662,-0.457186809 65.0204382,0.525594034 C68.3524006,1.66150905 70.5017978,4.4755704 70.9614212,8.89797802 L71.0039337,9.37481429 L71.0289065,9.76398128 L71.0289065,9.76398128 L71.0490958,10.3093406 L71.0527325,10.529216 L71.0527325,10.529216 L71.053947,140.009926 C71.053947,144.335657 69.6597405,146.815217 66.0254748,149.127279 L65.6667504,149.35056 L14.4460984,178.942642 L14.4460984,178.942642 C5.97092595,183.686505 0.265254912,179.62953 0.0118248601,169.234289 L0.0045442729,168.809394 L-1.06817271e-12,166.607723 L-1.06817271e-12,42.9702364 C-1.06817271e-12,36.9506067 2.3539117,32.9791882 7.23017211,29.7819502 L7.6543184,29.5097674 L56.3838592,1.35585027 Z M64.3404067,2.52032028 C62.1816078,1.78435396 59.4098332,2.08848638 57.7294183,3.00894217 L8.74212612,31.3143506 C4.33321622,34.0848834 2.2362184,37.3418564 2.1131762,42.4827187 L2.10741376,42.9702364 L2.11194591,168.801304 C2.17635742,175.242455 4.22098072,178.673361 7.86279333,178.799217 C6.56314045,177.44822 5.79180502,174.991471 5.72718918,171.414073 L5.72277518,170.919298 L5.72277518,47.2818114 C5.72277518,40.6032825 7.36115752,37.5059491 12.9872869,34.0570833 L13.3770936,33.8213424 L63.7838761,4.6983818 C64.7944758,4.16680071 65.7156575,3.86677804 66.5370953,3.78967566 C65.9100734,3.22493791 65.1739754,2.80449613 64.3404067,2.52032028 Z M68.5366611,7.26157394 C67.9877526,5.70019812 66.8659917,5.52277825 65.0433041,6.42022313 L64.8015767,6.5433514 L14.4443072,35.63854 C9.28305336,38.7191512 7.8942283,41.0744969 7.83242316,46.8624895 L7.83023234,47.2818114 L7.83023234,170.919298 C7.83023234,177.548152 9.73739232,179.053534 13.272325,177.181725 L13.4821376,177.067737 L64.5912483,147.538361 C67.7473078,145.615058 68.8689663,143.845649 68.9425693,140.387039 L68.9464899,140.009926 L68.9451598,10.5309181 C68.9318258,9.42676626 68.8184051,8.43978728 68.6126623,7.56472128 L68.5366611,7.26157394 Z M65.5711928,25.8441815 C65.8240714,25.695048 66.1366068,25.8442113 66.196585,26.113334 L66.2067956,26.2072399 L66.2067956,127.365183 C66.2067956,127.484538 66.1563186,127.596778 66.0703308,127.675704 L65.9994155,127.728242 L11.2055294,160.042585 C10.9526508,160.191718 10.6401154,160.042555 10.5801372,159.773432 L10.5699266,159.679526 L10.5699266,58.5215829 C10.5699266,58.4022285 10.6204036,58.289988 10.7063914,58.2110627 L10.7773067,58.1585246 L65.5711928,25.8441815 Z M65.3638127,26.9448499 L11.4129095,58.7618331 L11.4129095,158.940511 L65.3638127,127.123528 L65.3638127,26.9448499 Z" id="Shape" fill="#000000"></path>
                    <path d="M36.6605566,149.827116 C38.2519887,146.367094 41.4867959,144.314638 44.0635113,145.499795 C46.6402267,146.684952 47.186985,150.476733 45.5955529,153.936755 C44.0041208,157.396776 40.7693137,159.449232 38.1925983,158.264075 C35.6158828,157.078919 35.0691246,153.287137 36.6605566,149.827116 Z M43.1828743,147.414437 C41.8823552,146.816265 39.73982,148.175684 38.5751987,150.707753 C37.4105774,153.239821 37.7727161,155.751261 39.0732352,156.349433 C40.3737544,156.947605 42.5162895,155.588186 43.6809109,153.056118 C44.8455322,150.52405 44.4833935,148.012609 43.1828743,147.414437 Z M32.9115464,35.6529874 C32.9860796,36.3364097 32.5511191,37.1825657 31.9399152,37.5431128 C31.3287104,37.9035451 30.7729254,37.6418241 30.6982772,36.9584026 C30.6237449,36.2750952 31.0588194,35.4288235 31.6699084,35.0682772 C32.2811132,34.7078449 32.8370133,34.969565 32.9115464,35.6529874 Z M45.8710353,28.2533701 C45.8748086,28.7985553 45.5479351,29.448265 45.1193851,29.7858375 L44.9730835,29.8862295 L36.5972468,34.8028701 C36.0992319,35.0952784 35.6882946,34.8388676 35.6840326,34.2331062 C35.6802593,33.687921 36.0071333,33.0383045 36.435599,32.7006673 L36.5818694,32.6002476 L44.9577061,27.683607 C45.4558366,27.3913126 45.8667741,27.6477235 45.8710353,28.2533701 Z" id="Shape" fill="#E4223A"></path>
                </g>
            </g>
        </g>
    </g>
</svg>