<?xml version="1.0" encoding="UTF-8"?>
<svg width="32px" height="32px" viewBox="0 0 32 32" version="1.1" xmlns="http://www.w3.org/2000/svg" xmlns:xlink="http://www.w3.org/1999/xlink">
    <!-- Generator: Sketch 50.2 (55047) - http://www.bohemiancoding.com/sketch -->
    <title>linkedin</title>
    <desc>Created with Sketch.</desc>
    <defs></defs>
    <g id="Page-1" stroke="none" stroke-width="1" fill="none" fill-rule="evenodd">
        <g id="linkedin">
            <rect id="Rectangle-7-Copy-4" fill="#FFFFFF" x="0" y="0" width="32" height="32"></rect>
            <g transform="translate(5.000000, 5.000000)" fill="#000000" fill-rule="nonzero" id="Shape">
                <path d="M20.4285714,0 L1.56651786,0 C0.702232143,0 0,0.712053571 0,1.58616071 L0,20.4138393 C0,21.2879464 0.702232143,22 1.56651786,22 L20.4285714,22 C21.2928571,22 22,21.2879464 22,20.4138393 L22,1.58616071 C22,0.712053571 21.2928571,0 20.4285714,0 Z M6.64910714,18.8571429 L3.38839286,18.8571429 L3.38839286,8.35803571 L6.65401786,8.35803571 L6.65401786,18.8571429 L6.64910714,18.8571429 Z M5.01875,6.92410714 C3.97276786,6.92410714 3.128125,6.07455357 3.128125,5.03348214 C3.128125,3.99241071 3.97276786,3.14285714 5.01875,3.14285714 C6.05982143,3.14285714 6.909375,3.99241071 6.909375,5.03348214 C6.909375,6.07946429 6.06473214,6.92410714 5.01875,6.92410714 Z M18.871875,18.8571429 L15.6111607,18.8571429 L15.6111607,13.75 C15.6111607,12.5321429 15.5866071,10.965625 13.9169643,10.965625 C12.2178571,10.965625 11.9575893,12.2915179 11.9575893,13.6616071 L11.9575893,18.8571429 L8.696875,18.8571429 L8.696875,8.35803571 L11.825,8.35803571 L11.825,9.79196429 L11.8691964,9.79196429 C12.30625,8.96696429 13.371875,8.09776786 14.9580357,8.09776786 C18.2580357,8.09776786 18.871875,10.2732143 18.871875,13.1017857 L18.871875,18.8571429 Z"></path>
            </g>
        </g>
    </g>
</svg>