<?xml version="1.0" encoding="UTF-8"?>
<svg width="32px" height="32px" viewBox="0 0 32 32" version="1.1" xmlns="http://www.w3.org/2000/svg" xmlns:xlink="http://www.w3.org/1999/xlink">
    <!-- Generator: Sketch 50.2 (55047) - http://www.bohemiancoding.com/sketch -->
    <title>twitter</title>
    <desc>Created with Sketch.</desc>
    <defs></defs>
    <g id="Page-1" stroke="none" stroke-width="1" fill="none" fill-rule="evenodd">
        <g id="twitter">
            <rect id="Rectangle-7-Copy-3" fill="#FFFFFF" x="0" y="0" width="32" height="32"></rect>
            <g transform="translate(3.000000, 5.000000)" fill="#000000" fill-rule="nonzero" id="Shape">
                <path d="M23.3273828,5.48498077 C23.3438867,5.7255 23.3438867,5.96607212 23.3438867,6.20659135 C23.3438867,13.5427452 17.98225,21.9957163 8.18273828,21.9957163 C5.16369141,21.9957163 2.35914453,21.0850962 0,19.5045337 C0.428949219,19.5560433 0.84134375,19.5732308 1.28679687,19.5732308 C3.77787109,19.5732308 6.07105078,18.6970385 7.90227344,17.2023077 C5.55963281,17.1507452 3.59642969,15.5529423 2.92002344,13.3537885 C3.25,13.4052981 3.57992578,13.4396731 3.92640625,13.4396731 C4.40481641,13.4396731 4.88327734,13.3709231 5.32867969,13.2507163 C2.88706641,12.73525 1.05579297,10.501774 1.05579297,7.80439423 L1.05579297,7.73569712 C1.76515625,8.14803846 2.59009766,8.40574519 3.46439844,8.44006731 C2.02911719,7.4435625 1.08880078,5.7426875 1.08880078,3.81842788 C1.08880078,2.78760096 1.35271094,1.84265865 1.81466797,1.01797596 C4.43777344,4.38540385 8.38068359,6.58450481 12.8019531,6.82507692 C12.7194844,6.41273558 12.6699727,5.98325962 12.6699727,5.55373077 C12.6699727,2.49551923 15.0456211,0.00433653846 17.9986523,0.00433653846 C19.5329062,0.00433653846 20.9186758,0.674384615 21.8920508,1.75677404 C23.0963281,1.51625481 24.2511445,1.05235096 25.2740313,0.416677885 C24.8780391,1.70526442 24.0366953,2.78765385 22.9313906,3.47483654 C24.0037383,3.35462981 25.0430781,3.04530769 25.9998984,2.61583173 C25.2741328,3.71535577 24.3667227,4.69462019 23.3273828,5.48498077 Z"></path>
            </g>
        </g>
    </g>
</svg>